<?xml version="1.0" encoding="utf-8"?>
<!-- Generator: Adobe Illustrator 26.2.0, SVG Export Plug-In . SVG Version: 6.00 Build 0)  -->
<svg version="1.1" id="Layer_1" xmlns="http://www.w3.org/2000/svg" xmlns:xlink="http://www.w3.org/1999/xlink" x="0px" y="0px"
	 viewBox="0 0 496.14 538.73" style="enable-background:new 0 0 496.14 538.73;" xml:space="preserve">
<style type="text/css">
	.st0{fill:#B92700;}
</style>
<g>
	<rect x="408.57" y="35.37" class="st0" width="55" height="55"/>
	<rect x="32.57" y="448.37" class="st0" width="431" height="55"/>
	<polygon class="st0" points="240.57,170.37 408.57,170.37 408.57,423.37 463.57,423.37 463.57,115.37 240.57,115.37 	"/>
	<path class="st0" d="M248.57,420.37c61.21,0,111-49.79,111-111c0-61.21-49.79-111-111-111s-111,49.79-111,111
		C137.57,370.57,187.36,420.37,248.57,420.37z M192.57,309.37c0-30.88,25.12-56,56-56s56,25.12,56,56c0,30.88-25.12,56-56,56
		S192.57,340.24,192.57,309.37z"/>
</g>
</svg>
